<?xml version="1.0" encoding="utf-8" standalone="no"?>
<!DOCTYPE svg PUBLIC "-//W3C//DTD SVG 1.1//EN"
  "http://www.w3.org/Graphics/SVG/1.1/DTD/svg11.dtd">
<!-- Created with matplotlib (https://matplotlib.org/) -->
<svg height="288pt" version="1.1" viewBox="0 0 360 288" width="360pt" xmlns="http://www.w3.org/2000/svg" xmlns:xlink="http://www.w3.org/1999/xlink">
 <defs>
  <style type="text/css">
*{stroke-linecap:butt;stroke-linejoin:round;white-space:pre;}
  </style>
 </defs>
 <g id="figure_1">
  <g id="patch_1">
   <path d="M 0 288 
L 360 288 
L 360 0 
L 0 0 
z
" style="fill:#ffffff;"/>
  </g>
  <g id="axes_1">
   <g id="patch_2">
    <path d="M 47.72 246.04 
L 349.2 246.04 
L 349.2 14.76 
L 47.72 14.76 
z
" style="fill:#ffffff;"/>
   </g>
   <g id="matplotlib.axis_1">
    <g id="xtick_1">
     <g id="line2d_1">
      <defs>
       <path d="M 0 0 
L 0 3.5 
" id="m6ccfb8589c" style="stroke:#000000;stroke-width:0.8;"/>
      </defs>
      <g>
       <use style="stroke:#000000;stroke-width:0.8;" x="47.72" xlink:href="#m6ccfb8589c" y="246.04"/>
      </g>
     </g>
     <g id="text_1">
      <!-- 0 -->
      <defs>
       <path d="M 31.78125 66.40625 
Q 24.171875 66.40625 20.328125 58.90625 
Q 16.5 51.421875 16.5 36.375 
Q 16.5 21.390625 20.328125 13.890625 
Q 24.171875 6.390625 31.78125 6.390625 
Q 39.453125 6.390625 43.28125 13.890625 
Q 47.125 21.390625 47.125 36.375 
Q 47.125 51.421875 43.28125 58.90625 
Q 39.453125 66.40625 31.78125 66.40625 
z
M 31.78125 74.21875 
Q 44.046875 74.21875 50.515625 64.515625 
Q 56.984375 54.828125 56.984375 36.375 
Q 56.984375 17.96875 50.515625 8.265625 
Q 44.046875 -1.421875 31.78125 -1.421875 
Q 19.53125 -1.421875 13.0625 8.265625 
Q 6.59375 17.96875 6.59375 36.375 
Q 6.59375 54.828125 13.0625 64.515625 
Q 19.53125 74.21875 31.78125 74.21875 
z
" id="DejaVuSans-48"/>
      </defs>
      <g transform="translate(44.53875 260.638438)scale(0.1 -0.1)">
       <use xlink:href="#DejaVuSans-48"/>
      </g>
     </g>
    </g>
    <g id="xtick_2">
     <g id="line2d_2">
      <g>
       <use style="stroke:#000000;stroke-width:0.8;" x="105.696923" xlink:href="#m6ccfb8589c" y="246.04"/>
      </g>
     </g>
     <g id="text_2">
      <!-- 1 -->
      <defs>
       <path d="M 12.40625 8.296875 
L 28.515625 8.296875 
L 28.515625 63.921875 
L 10.984375 60.40625 
L 10.984375 69.390625 
L 28.421875 72.90625 
L 38.28125 72.90625 
L 38.28125 8.296875 
L 54.390625 8.296875 
L 54.390625 0 
L 12.40625 0 
z
" id="DejaVuSans-49"/>
      </defs>
      <g transform="translate(102.515673 260.638438)scale(0.1 -0.1)">
       <use xlink:href="#DejaVuSans-49"/>
      </g>
     </g>
    </g>
    <g id="xtick_3">
     <g id="line2d_3">
      <g>
       <use style="stroke:#000000;stroke-width:0.8;" x="163.673846" xlink:href="#m6ccfb8589c" y="246.04"/>
      </g>
     </g>
     <g id="text_3">
      <!-- 2 -->
      <defs>
       <path d="M 19.1875 8.296875 
L 53.609375 8.296875 
L 53.609375 0 
L 7.328125 0 
L 7.328125 8.296875 
Q 12.9375 14.109375 22.625 23.890625 
Q 32.328125 33.6875 34.8125 36.53125 
Q 39.546875 41.84375 41.421875 45.53125 
Q 43.3125 49.21875 43.3125 52.78125 
Q 43.3125 58.59375 39.234375 62.25 
Q 35.15625 65.921875 28.609375 65.921875 
Q 23.96875 65.921875 18.8125 64.3125 
Q 13.671875 62.703125 7.8125 59.421875 
L 7.8125 69.390625 
Q 13.765625 71.78125 18.9375 73 
Q 24.125 74.21875 28.421875 74.21875 
Q 39.75 74.21875 46.484375 68.546875 
Q 53.21875 62.890625 53.21875 53.421875 
Q 53.21875 48.921875 51.53125 44.890625 
Q 49.859375 40.875 45.40625 35.40625 
Q 44.1875 33.984375 37.640625 27.21875 
Q 31.109375 20.453125 19.1875 8.296875 
z
" id="DejaVuSans-50"/>
      </defs>
      <g transform="translate(160.492596 260.638438)scale(0.1 -0.1)">
       <use xlink:href="#DejaVuSans-50"/>
      </g>
     </g>
    </g>
    <g id="xtick_4">
     <g id="line2d_4">
      <g>
       <use style="stroke:#000000;stroke-width:0.8;" x="221.650769" xlink:href="#m6ccfb8589c" y="246.04"/>
      </g>
     </g>
     <g id="text_4">
      <!-- 3 -->
      <defs>
       <path d="M 40.578125 39.3125 
Q 47.65625 37.796875 51.625 33 
Q 55.609375 28.21875 55.609375 21.1875 
Q 55.609375 10.40625 48.1875 4.484375 
Q 40.765625 -1.421875 27.09375 -1.421875 
Q 22.515625 -1.421875 17.65625 -0.515625 
Q 12.796875 0.390625 7.625 2.203125 
L 7.625 11.71875 
Q 11.71875 9.328125 16.59375 8.109375 
Q 21.484375 6.890625 26.8125 6.890625 
Q 36.078125 6.890625 40.9375 10.546875 
Q 45.796875 14.203125 45.796875 21.1875 
Q 45.796875 27.640625 41.28125 31.265625 
Q 36.765625 34.90625 28.71875 34.90625 
L 20.21875 34.90625 
L 20.21875 43.015625 
L 29.109375 43.015625 
Q 36.375 43.015625 40.234375 45.921875 
Q 44.09375 48.828125 44.09375 54.296875 
Q 44.09375 59.90625 40.109375 62.90625 
Q 36.140625 65.921875 28.71875 65.921875 
Q 24.65625 65.921875 20.015625 65.03125 
Q 15.375 64.15625 9.8125 62.3125 
L 9.8125 71.09375 
Q 15.4375 72.65625 20.34375 73.4375 
Q 25.25 74.21875 29.59375 74.21875 
Q 40.828125 74.21875 47.359375 69.109375 
Q 53.90625 64.015625 53.90625 55.328125 
Q 53.90625 49.265625 50.4375 45.09375 
Q 46.96875 40.921875 40.578125 39.3125 
z
" id="DejaVuSans-51"/>
      </defs>
      <g transform="translate(218.469519 260.638438)scale(0.1 -0.1)">
       <use xlink:href="#DejaVuSans-51"/>
      </g>
     </g>
    </g>
    <g id="xtick_5">
     <g id="line2d_5">
      <g>
       <use style="stroke:#000000;stroke-width:0.8;" x="279.627692" xlink:href="#m6ccfb8589c" y="246.04"/>
      </g>
     </g>
     <g id="text_5">
      <!-- 4 -->
      <defs>
       <path d="M 37.796875 64.3125 
L 12.890625 25.390625 
L 37.796875 25.390625 
z
M 35.203125 72.90625 
L 47.609375 72.90625 
L 47.609375 25.390625 
L 58.015625 25.390625 
L 58.015625 17.1875 
L 47.609375 17.1875 
L 47.609375 0 
L 37.796875 0 
L 37.796875 17.1875 
L 4.890625 17.1875 
L 4.890625 26.703125 
z
" id="DejaVuSans-52"/>
      </defs>
      <g transform="translate(276.446442 260.638438)scale(0.1 -0.1)">
       <use xlink:href="#DejaVuSans-52"/>
      </g>
     </g>
    </g>
    <g id="xtick_6">
     <g id="line2d_6">
      <g>
       <use style="stroke:#000000;stroke-width:0.8;" x="337.604615" xlink:href="#m6ccfb8589c" y="246.04"/>
      </g>
     </g>
     <g id="text_6">
      <!-- 5 -->
      <defs>
       <path d="M 10.796875 72.90625 
L 49.515625 72.90625 
L 49.515625 64.59375 
L 19.828125 64.59375 
L 19.828125 46.734375 
Q 21.96875 47.46875 24.109375 47.828125 
Q 26.265625 48.1875 28.421875 48.1875 
Q 40.625 48.1875 47.75 41.5 
Q 54.890625 34.8125 54.890625 23.390625 
Q 54.890625 11.625 47.5625 5.09375 
Q 40.234375 -1.421875 26.90625 -1.421875 
Q 22.3125 -1.421875 17.546875 -0.640625 
Q 12.796875 0.140625 7.71875 1.703125 
L 7.71875 11.625 
Q 12.109375 9.234375 16.796875 8.0625 
Q 21.484375 6.890625 26.703125 6.890625 
Q 35.15625 6.890625 40.078125 11.328125 
Q 45.015625 15.765625 45.015625 23.390625 
Q 45.015625 31 40.078125 35.4375 
Q 35.15625 39.890625 26.703125 39.890625 
Q 22.75 39.890625 18.8125 39.015625 
Q 14.890625 38.140625 10.796875 36.28125 
z
" id="DejaVuSans-53"/>
      </defs>
      <g transform="translate(334.423365 260.638438)scale(0.1 -0.1)">
       <use xlink:href="#DejaVuSans-53"/>
      </g>
     </g>
    </g>
    <g id="text_7">
     <!-- λ [µm] -->
     <defs>
      <path d="M 30.953125 67.4375 
L 56.203125 0 
L 46.6875 0 
L 31.34375 40.4375 
L 12.5 0 
L 2.984375 0 
L 26.953125 52.4375 
L 23.34375 62.109375 
Q 21.046875 68.265625 15.828125 68.265625 
L 11.140625 68.265625 
L 11.140625 75.984375 
L 16.84375 75.875 
Q 27.875 75.734375 30.953125 67.4375 
z
" id="DejaVuSans-955"/>
      <path id="DejaVuSans-32"/>
      <path d="M 8.59375 75.984375 
L 29.296875 75.984375 
L 29.296875 69 
L 17.578125 69 
L 17.578125 -6.203125 
L 29.296875 -6.203125 
L 29.296875 -13.1875 
L 8.59375 -13.1875 
z
" id="DejaVuSans-91"/>
      <path d="M 8.5 -20.796875 
L 8.5 54.6875 
L 17.484375 54.6875 
L 17.484375 20.703125 
Q 17.484375 13.625 20.84375 10 
Q 24.21875 6.390625 30.8125 6.390625 
Q 38.03125 6.390625 41.671875 10.484375 
Q 45.3125 14.59375 45.3125 22.796875 
L 45.3125 54.6875 
L 54.296875 54.6875 
L 54.296875 12.59375 
Q 54.296875 9.671875 55.140625 8.28125 
Q 56 6.890625 57.8125 6.890625 
Q 58.25 6.890625 59.03125 7.15625 
Q 59.8125 7.421875 61.1875 8.015625 
L 61.1875 0.78125 
Q 59.1875 -0.34375 57.390625 -0.875 
Q 55.609375 -1.421875 53.90625 -1.421875 
Q 50.53125 -1.421875 48.53125 0.484375 
Q 46.53125 2.390625 45.796875 6.296875 
Q 43.359375 2.4375 39.8125 0.5 
Q 36.28125 -1.421875 31.5 -1.421875 
Q 26.515625 -1.421875 23.015625 0.484375 
Q 19.53125 2.390625 17.484375 6.203125 
L 17.484375 -20.796875 
z
" id="DejaVuSans-181"/>
      <path d="M 52 44.1875 
Q 55.375 50.25 60.0625 53.125 
Q 64.75 56 71.09375 56 
Q 79.640625 56 84.28125 50.015625 
Q 88.921875 44.046875 88.921875 33.015625 
L 88.921875 0 
L 79.890625 0 
L 79.890625 32.71875 
Q 79.890625 40.578125 77.09375 44.375 
Q 74.3125 48.1875 68.609375 48.1875 
Q 61.625 48.1875 57.5625 43.546875 
Q 53.515625 38.921875 53.515625 30.90625 
L 53.515625 0 
L 44.484375 0 
L 44.484375 32.71875 
Q 44.484375 40.625 41.703125 44.40625 
Q 38.921875 48.1875 33.109375 48.1875 
Q 26.21875 48.1875 22.15625 43.53125 
Q 18.109375 38.875 18.109375 30.90625 
L 18.109375 0 
L 9.078125 0 
L 9.078125 54.6875 
L 18.109375 54.6875 
L 18.109375 46.1875 
Q 21.1875 51.21875 25.484375 53.609375 
Q 29.78125 56 35.6875 56 
Q 41.65625 56 45.828125 52.96875 
Q 50 49.953125 52 44.1875 
z
" id="DejaVuSans-109"/>
      <path d="M 30.421875 75.984375 
L 30.421875 -13.1875 
L 9.71875 -13.1875 
L 9.71875 -6.203125 
L 21.390625 -6.203125 
L 21.390625 69 
L 9.71875 69 
L 9.71875 75.984375 
z
" id="DejaVuSans-93"/>
     </defs>
     <g transform="translate(181.958437 274.316562)scale(0.1 -0.1)">
      <use xlink:href="#DejaVuSans-955"/>
      <use x="59.179688" xlink:href="#DejaVuSans-32"/>
      <use x="90.966797" xlink:href="#DejaVuSans-91"/>
      <use x="129.980469" xlink:href="#DejaVuSans-181"/>
      <use x="193.603516" xlink:href="#DejaVuSans-109"/>
      <use x="291.015625" xlink:href="#DejaVuSans-93"/>
     </g>
    </g>
   </g>
   <g id="matplotlib.axis_2">
    <g id="ytick_1">
     <g id="line2d_7">
      <defs>
       <path d="M 0 0 
L -3.5 0 
" id="m41fe37f615" style="stroke:#000000;stroke-width:0.8;"/>
      </defs>
      <g>
       <use style="stroke:#000000;stroke-width:0.8;" x="47.72" xlink:href="#m41fe37f615" y="246.04"/>
      </g>
     </g>
     <g id="text_8">
      <!-- 0.0 -->
      <defs>
       <path d="M 10.6875 12.40625 
L 21 12.40625 
L 21 0 
L 10.6875 0 
z
" id="DejaVuSans-46"/>
      </defs>
      <g transform="translate(24.816875 249.839219)scale(0.1 -0.1)">
       <use xlink:href="#DejaVuSans-48"/>
       <use x="63.623047" xlink:href="#DejaVuSans-46"/>
       <use x="95.410156" xlink:href="#DejaVuSans-48"/>
      </g>
     </g>
    </g>
    <g id="ytick_2">
     <g id="line2d_8">
      <g>
       <use style="stroke:#000000;stroke-width:0.8;" x="47.72" xlink:href="#m41fe37f615" y="207.493333"/>
      </g>
     </g>
     <g id="text_9">
      <!-- 0.2 -->
      <g transform="translate(24.816875 211.292552)scale(0.1 -0.1)">
       <use xlink:href="#DejaVuSans-48"/>
       <use x="63.623047" xlink:href="#DejaVuSans-46"/>
       <use x="95.410156" xlink:href="#DejaVuSans-50"/>
      </g>
     </g>
    </g>
    <g id="ytick_3">
     <g id="line2d_9">
      <g>
       <use style="stroke:#000000;stroke-width:0.8;" x="47.72" xlink:href="#m41fe37f615" y="168.946667"/>
      </g>
     </g>
     <g id="text_10">
      <!-- 0.4 -->
      <g transform="translate(24.816875 172.745885)scale(0.1 -0.1)">
       <use xlink:href="#DejaVuSans-48"/>
       <use x="63.623047" xlink:href="#DejaVuSans-46"/>
       <use x="95.410156" xlink:href="#DejaVuSans-52"/>
      </g>
     </g>
    </g>
    <g id="ytick_4">
     <g id="line2d_10">
      <g>
       <use style="stroke:#000000;stroke-width:0.8;" x="47.72" xlink:href="#m41fe37f615" y="130.4"/>
      </g>
     </g>
     <g id="text_11">
      <!-- 0.6 -->
      <defs>
       <path d="M 33.015625 40.375 
Q 26.375 40.375 22.484375 35.828125 
Q 18.609375 31.296875 18.609375 23.390625 
Q 18.609375 15.53125 22.484375 10.953125 
Q 26.375 6.390625 33.015625 6.390625 
Q 39.65625 6.390625 43.53125 10.953125 
Q 47.40625 15.53125 47.40625 23.390625 
Q 47.40625 31.296875 43.53125 35.828125 
Q 39.65625 40.375 33.015625 40.375 
z
M 52.59375 71.296875 
L 52.59375 62.3125 
Q 48.875 64.0625 45.09375 64.984375 
Q 41.3125 65.921875 37.59375 65.921875 
Q 27.828125 65.921875 22.671875 59.328125 
Q 17.53125 52.734375 16.796875 39.40625 
Q 19.671875 43.65625 24.015625 45.921875 
Q 28.375 48.1875 33.59375 48.1875 
Q 44.578125 48.1875 50.953125 41.515625 
Q 57.328125 34.859375 57.328125 23.390625 
Q 57.328125 12.15625 50.6875 5.359375 
Q 44.046875 -1.421875 33.015625 -1.421875 
Q 20.359375 -1.421875 13.671875 8.265625 
Q 6.984375 17.96875 6.984375 36.375 
Q 6.984375 53.65625 15.1875 63.9375 
Q 23.390625 74.21875 37.203125 74.21875 
Q 40.921875 74.21875 44.703125 73.484375 
Q 48.484375 72.75 52.59375 71.296875 
z
" id="DejaVuSans-54"/>
      </defs>
      <g transform="translate(24.816875 134.199219)scale(0.1 -0.1)">
       <use xlink:href="#DejaVuSans-48"/>
       <use x="63.623047" xlink:href="#DejaVuSans-46"/>
       <use x="95.410156" xlink:href="#DejaVuSans-54"/>
      </g>
     </g>
    </g>
    <g id="ytick_5">
     <g id="line2d_11">
      <g>
       <use style="stroke:#000000;stroke-width:0.8;" x="47.72" xlink:href="#m41fe37f615" y="91.853333"/>
      </g>
     </g>
     <g id="text_12">
      <!-- 0.8 -->
      <defs>
       <path d="M 31.78125 34.625 
Q 24.75 34.625 20.71875 30.859375 
Q 16.703125 27.09375 16.703125 20.515625 
Q 16.703125 13.921875 20.71875 10.15625 
Q 24.75 6.390625 31.78125 6.390625 
Q 38.8125 6.390625 42.859375 10.171875 
Q 46.921875 13.96875 46.921875 20.515625 
Q 46.921875 27.09375 42.890625 30.859375 
Q 38.875 34.625 31.78125 34.625 
z
M 21.921875 38.8125 
Q 15.578125 40.375 12.03125 44.71875 
Q 8.5 49.078125 8.5 55.328125 
Q 8.5 64.0625 14.71875 69.140625 
Q 20.953125 74.21875 31.78125 74.21875 
Q 42.671875 74.21875 48.875 69.140625 
Q 55.078125 64.0625 55.078125 55.328125 
Q 55.078125 49.078125 51.53125 44.71875 
Q 48 40.375 41.703125 38.8125 
Q 48.828125 37.15625 52.796875 32.3125 
Q 56.78125 27.484375 56.78125 20.515625 
Q 56.78125 9.90625 50.3125 4.234375 
Q 43.84375 -1.421875 31.78125 -1.421875 
Q 19.734375 -1.421875 13.25 4.234375 
Q 6.78125 9.90625 6.78125 20.515625 
Q 6.78125 27.484375 10.78125 32.3125 
Q 14.796875 37.15625 21.921875 38.8125 
z
M 18.3125 54.390625 
Q 18.3125 48.734375 21.84375 45.5625 
Q 25.390625 42.390625 31.78125 42.390625 
Q 38.140625 42.390625 41.71875 45.5625 
Q 45.3125 48.734375 45.3125 54.390625 
Q 45.3125 60.0625 41.71875 63.234375 
Q 38.140625 66.40625 31.78125 66.40625 
Q 25.390625 66.40625 21.84375 63.234375 
Q 18.3125 60.0625 18.3125 54.390625 
z
" id="DejaVuSans-56"/>
      </defs>
      <g transform="translate(24.816875 95.652552)scale(0.1 -0.1)">
       <use xlink:href="#DejaVuSans-48"/>
       <use x="63.623047" xlink:href="#DejaVuSans-46"/>
       <use x="95.410156" xlink:href="#DejaVuSans-56"/>
      </g>
     </g>
    </g>
    <g id="ytick_6">
     <g id="line2d_12">
      <g>
       <use style="stroke:#000000;stroke-width:0.8;" x="47.72" xlink:href="#m41fe37f615" y="53.306667"/>
      </g>
     </g>
     <g id="text_13">
      <!-- 1.0 -->
      <g transform="translate(24.816875 57.105885)scale(0.1 -0.1)">
       <use xlink:href="#DejaVuSans-49"/>
       <use x="63.623047" xlink:href="#DejaVuSans-46"/>
       <use x="95.410156" xlink:href="#DejaVuSans-48"/>
      </g>
     </g>
    </g>
    <g id="ytick_7">
     <g id="line2d_13">
      <g>
       <use style="stroke:#000000;stroke-width:0.8;" x="47.72" xlink:href="#m41fe37f615" y="14.76"/>
      </g>
     </g>
     <g id="text_14">
      <!-- 1.2 -->
      <g transform="translate(24.816875 18.559219)scale(0.1 -0.1)">
       <use xlink:href="#DejaVuSans-49"/>
       <use x="63.623047" xlink:href="#DejaVuSans-46"/>
       <use x="95.410156" xlink:href="#DejaVuSans-50"/>
      </g>
     </g>
    </g>
    <g id="text_15">
     <!-- I/F Reflectance -->
     <defs>
      <path d="M 9.8125 72.90625 
L 19.671875 72.90625 
L 19.671875 0 
L 9.8125 0 
z
" id="DejaVuSans-73"/>
      <path d="M 25.390625 72.90625 
L 33.6875 72.90625 
L 8.296875 -9.28125 
L 0 -9.28125 
z
" id="DejaVuSans-47"/>
      <path d="M 9.8125 72.90625 
L 51.703125 72.90625 
L 51.703125 64.59375 
L 19.671875 64.59375 
L 19.671875 43.109375 
L 48.578125 43.109375 
L 48.578125 34.8125 
L 19.671875 34.8125 
L 19.671875 0 
L 9.8125 0 
z
" id="DejaVuSans-70"/>
      <path d="M 44.390625 34.1875 
Q 47.5625 33.109375 50.5625 29.59375 
Q 53.5625 26.078125 56.59375 19.921875 
L 66.609375 0 
L 56 0 
L 46.6875 18.703125 
Q 43.0625 26.03125 39.671875 28.421875 
Q 36.28125 30.8125 30.421875 30.8125 
L 19.671875 30.8125 
L 19.671875 0 
L 9.8125 0 
L 9.8125 72.90625 
L 32.078125 72.90625 
Q 44.578125 72.90625 50.734375 67.671875 
Q 56.890625 62.453125 56.890625 51.90625 
Q 56.890625 45.015625 53.6875 40.46875 
Q 50.484375 35.9375 44.390625 34.1875 
z
M 19.671875 64.796875 
L 19.671875 38.921875 
L 32.078125 38.921875 
Q 39.203125 38.921875 42.84375 42.21875 
Q 46.484375 45.515625 46.484375 51.90625 
Q 46.484375 58.296875 42.84375 61.546875 
Q 39.203125 64.796875 32.078125 64.796875 
z
" id="DejaVuSans-82"/>
      <path d="M 56.203125 29.59375 
L 56.203125 25.203125 
L 14.890625 25.203125 
Q 15.484375 15.921875 20.484375 11.0625 
Q 25.484375 6.203125 34.421875 6.203125 
Q 39.59375 6.203125 44.453125 7.46875 
Q 49.3125 8.734375 54.109375 11.28125 
L 54.109375 2.78125 
Q 49.265625 0.734375 44.1875 -0.34375 
Q 39.109375 -1.421875 33.890625 -1.421875 
Q 20.796875 -1.421875 13.15625 6.1875 
Q 5.515625 13.8125 5.515625 26.8125 
Q 5.515625 40.234375 12.765625 48.109375 
Q 20.015625 56 32.328125 56 
Q 43.359375 56 49.78125 48.890625 
Q 56.203125 41.796875 56.203125 29.59375 
z
M 47.21875 32.234375 
Q 47.125 39.59375 43.09375 43.984375 
Q 39.0625 48.390625 32.421875 48.390625 
Q 24.90625 48.390625 20.390625 44.140625 
Q 15.875 39.890625 15.1875 32.171875 
z
" id="DejaVuSans-101"/>
      <path d="M 37.109375 75.984375 
L 37.109375 68.5 
L 28.515625 68.5 
Q 23.6875 68.5 21.796875 66.546875 
Q 19.921875 64.59375 19.921875 59.515625 
L 19.921875 54.6875 
L 34.71875 54.6875 
L 34.71875 47.703125 
L 19.921875 47.703125 
L 19.921875 0 
L 10.890625 0 
L 10.890625 47.703125 
L 2.296875 47.703125 
L 2.296875 54.6875 
L 10.890625 54.6875 
L 10.890625 58.5 
Q 10.890625 67.625 15.140625 71.796875 
Q 19.390625 75.984375 28.609375 75.984375 
z
" id="DejaVuSans-102"/>
      <path d="M 9.421875 75.984375 
L 18.40625 75.984375 
L 18.40625 0 
L 9.421875 0 
z
" id="DejaVuSans-108"/>
      <path d="M 48.78125 52.59375 
L 48.78125 44.1875 
Q 44.96875 46.296875 41.140625 47.34375 
Q 37.3125 48.390625 33.40625 48.390625 
Q 24.65625 48.390625 19.8125 42.84375 
Q 14.984375 37.3125 14.984375 27.296875 
Q 14.984375 17.28125 19.8125 11.734375 
Q 24.65625 6.203125 33.40625 6.203125 
Q 37.3125 6.203125 41.140625 7.25 
Q 44.96875 8.296875 48.78125 10.40625 
L 48.78125 2.09375 
Q 45.015625 0.34375 40.984375 -0.53125 
Q 36.96875 -1.421875 32.421875 -1.421875 
Q 20.0625 -1.421875 12.78125 6.34375 
Q 5.515625 14.109375 5.515625 27.296875 
Q 5.515625 40.671875 12.859375 48.328125 
Q 20.21875 56 33.015625 56 
Q 37.15625 56 41.109375 55.140625 
Q 45.0625 54.296875 48.78125 52.59375 
z
" id="DejaVuSans-99"/>
      <path d="M 18.3125 70.21875 
L 18.3125 54.6875 
L 36.8125 54.6875 
L 36.8125 47.703125 
L 18.3125 47.703125 
L 18.3125 18.015625 
Q 18.3125 11.328125 20.140625 9.421875 
Q 21.96875 7.515625 27.59375 7.515625 
L 36.8125 7.515625 
L 36.8125 0 
L 27.59375 0 
Q 17.1875 0 13.234375 3.875 
Q 9.28125 7.765625 9.28125 18.015625 
L 9.28125 47.703125 
L 2.6875 47.703125 
L 2.6875 54.6875 
L 9.28125 54.6875 
L 9.28125 70.21875 
z
" id="DejaVuSans-116"/>
      <path d="M 34.28125 27.484375 
Q 23.390625 27.484375 19.1875 25 
Q 14.984375 22.515625 14.984375 16.5 
Q 14.984375 11.71875 18.140625 8.90625 
Q 21.296875 6.109375 26.703125 6.109375 
Q 34.1875 6.109375 38.703125 11.40625 
Q 43.21875 16.703125 43.21875 25.484375 
L 43.21875 27.484375 
z
M 52.203125 31.203125 
L 52.203125 0 
L 43.21875 0 
L 43.21875 8.296875 
Q 40.140625 3.328125 35.546875 0.953125 
Q 30.953125 -1.421875 24.3125 -1.421875 
Q 15.921875 -1.421875 10.953125 3.296875 
Q 6 8.015625 6 15.921875 
Q 6 25.140625 12.171875 29.828125 
Q 18.359375 34.515625 30.609375 34.515625 
L 43.21875 34.515625 
L 43.21875 35.40625 
Q 43.21875 41.609375 39.140625 45 
Q 35.0625 48.390625 27.6875 48.390625 
Q 23 48.390625 18.546875 47.265625 
Q 14.109375 46.140625 10.015625 43.890625 
L 10.015625 52.203125 
Q 14.9375 54.109375 19.578125 55.046875 
Q 24.21875 56 28.609375 56 
Q 40.484375 56 46.34375 49.84375 
Q 52.203125 43.703125 52.203125 31.203125 
z
" id="DejaVuSans-97"/>
      <path d="M 54.890625 33.015625 
L 54.890625 0 
L 45.90625 0 
L 45.90625 32.71875 
Q 45.90625 40.484375 42.875 44.328125 
Q 39.84375 48.1875 33.796875 48.1875 
Q 26.515625 48.1875 22.3125 43.546875 
Q 18.109375 38.921875 18.109375 30.90625 
L 18.109375 0 
L 9.078125 0 
L 9.078125 54.6875 
L 18.109375 54.6875 
L 18.109375 46.1875 
Q 21.34375 51.125 25.703125 53.5625 
Q 30.078125 56 35.796875 56 
Q 45.21875 56 50.046875 50.171875 
Q 54.890625 44.34375 54.890625 33.015625 
z
" id="DejaVuSans-110"/>
     </defs>
     <g transform="translate(18.737188 167.565625)rotate(-90)scale(0.1 -0.1)">
      <use xlink:href="#DejaVuSans-73"/>
      <use x="29.492188" xlink:href="#DejaVuSans-47"/>
      <use x="63.183594" xlink:href="#DejaVuSans-70"/>
      <use x="120.703125" xlink:href="#DejaVuSans-32"/>
      <use x="152.490234" xlink:href="#DejaVuSans-82"/>
      <use x="221.910156" xlink:href="#DejaVuSans-101"/>
      <use x="283.433594" xlink:href="#DejaVuSans-102"/>
      <use x="318.638672" xlink:href="#DejaVuSans-108"/>
      <use x="346.421875" xlink:href="#DejaVuSans-101"/>
      <use x="407.945312" xlink:href="#DejaVuSans-99"/>
      <use x="462.925781" xlink:href="#DejaVuSans-116"/>
      <use x="502.134766" xlink:href="#DejaVuSans-97"/>
      <use x="563.414062" xlink:href="#DejaVuSans-110"/>
      <use x="626.792969" xlink:href="#DejaVuSans-99"/>
      <use x="681.773438" xlink:href="#DejaVuSans-101"/>
     </g>
    </g>
   </g>
   <g id="line2d_14">
    <path clip-path="url(#p28abbde9a3)" d="M 72.725447 235.356791 
L 73.154476 234.603204 
L 73.577708 234.277485 
L 77.496948 227.009511 
L 78.789833 223.494055 
L 80.088516 217.962608 
L 82.233662 206.269477 
L 83.543941 200.988583 
L 84.390404 198.263334 
L 85.70648 194.994577 
L 86.98777 192.477479 
L 87.857424 191.309515 
L 88.286453 190.968377 
L 88.709685 190.299593 
L 90.878022 188.776999 
L 91.741878 188.312512 
L 92.170907 188.239273 
L 92.599936 188.023412 
L 93.452197 188.019557 
L 94.316053 187.743949 
L 94.739285 188.171817 
L 95.174112 187.857661 
L 96.049563 188.169889 
L 96.907622 188.029194 
L 97.336651 188.432007 
L 97.771478 188.102433 
L 98.194709 188.108215 
L 98.623738 188.412733 
L 99.052768 188.270111 
L 99.475999 188.283602 
L 99.905028 188.563065 
L 100.334058 188.115924 
L 100.757289 188.146761 
L 101.186318 188.645941 
L 101.632741 188.36455 
L 108.887973 184.355697 
L 109.719362 184.330641 
L 111.38272 183.846881 
L 112.214689 184.746945 
L 113.046658 185.099647 
L 113.879206 184.571558 
L 114.711755 184.550357 
L 115.544883 184.324859 
L 116.378012 183.382393 
L 117.21114 183.698476 
L 118.044268 184.931969 
L 119.711685 183.550071 
L 121.378521 182.942961 
L 122.212229 182.993072 
L 123.879646 183.787133 
L 124.713354 183.509597 
L 125.547062 184.305586 
L 126.38077 185.914909 
L 127.214478 186.884358 
L 128.047607 186.787991 
L 128.880735 186.481545 
L 130.546992 190.8219 
L 131.37954 192.265473 
L 132.212669 186.549002 
L 134.709155 185.454277 
L 135.540544 184.876077 
L 136.371933 186.780282 
L 138.033552 185.552571 
L 138.864361 190.515454 
L 139.694011 188.283602 
L 140.523661 190.914412 
L 141.352731 190.230209 
L 142.181801 188.584266 
L 143.010291 188.536083 
L 143.838201 188.088941 
L 144.665532 187.886571 
L 145.492283 187.235133 
L 146.319034 187.343063 
L 147.970217 187.079019 
L 151.265045 188.056177 
L 152.087738 189.035262 
L 152.909271 188.873366 
L 153.730224 189.181739 
L 154.550018 190.523163 
L 155.369811 190.455707 
L 156.188446 192.664431 
L 157.0065 192.656721 
L 157.823395 191.623671 
L 159.455445 192.593119 
L 160.270021 197.168609 
L 161.084017 215.996728 
L 161.896853 209.910209 
L 162.70853 195.923551 
L 163.519628 211.866453 
L 164.330145 231.52718 
L 165.139503 210.127998 
L 166.75474 212.190245 
L 167.561199 211.076246 
L 168.366498 201.526309 
L 169.170638 196.571135 
L 169.973619 192.776216 
L 170.775439 191.365408 
L 171.576681 190.41716 
L 172.376182 191.413591 
L 173.175104 191.683418 
L 174.76831 190.162752 
L 175.563754 190.160825 
L 176.357458 189.738739 
L 177.150002 189.711756 
L 177.941387 189.559497 
L 179.520099 189.503604 
L 180.307425 189.919908 
L 181.093592 190.168534 
L 181.8786 190.297665 
L 182.661868 190.997287 
L 183.443977 190.912485 
L 184.224346 191.365408 
L 185.003556 192.201871 
L 185.781027 192.269327 
L 186.557338 193.146264 
L 187.331909 192.768507 
L 188.105322 192.96124 
L 188.876994 192.992077 
L 189.646928 193.165537 
L 190.415702 193.687845 
L 191.182737 193.593405 
L 191.948032 194.703549 
L 192.712168 194.219789 
L 193.473985 194.948321 
L 194.234642 194.961812 
L 195.750159 196.241561 
L 196.505598 198.776005 
L 198.011259 202.734747 
L 198.76148 203.285965 
M 211.117522 242.333738 
L 212.30315 240.782235 
L 213.523564 239.625835 
L 214.737021 239.228804 
L 215.993381 239.357935 
L 217.187706 239.660527 
L 219.579254 239.88217 
L 220.786913 239.498631 
L 221.993993 239.446593 
L 223.204551 238.92814 
L 224.454533 237.817996 
L 225.625667 237.449875 
L 226.833326 237.260997 
L 228.013737 236.337804 
L 229.216758 235.208387 
L 231.657006 231.802789 
L 234.042757 228.80964 
L 235.255634 226.922781 
L 236.459235 225.402115 
L 237.671532 224.407611 
L 238.901803 222.790578 
L 241.326398 220.198315 
L 242.506228 219.340651 
L 244.944737 215.538023 
L 246.153556 213.633817 
L 247.359476 212.510182 
L 248.560178 212.140134 
L 249.747546 211.583135 
L 250.930855 210.143417 
L 252.118222 209.401393 
L 253.318344 208.470491 
L 256.89784 206.80913 
L 258.088686 205.621893 
L 259.287069 204.189884 
L 260.472117 204.199521 
L 261.665282 202.946754 
L 262.848591 202.713547 
L 264.055091 202.322298 
L 265.282462 202.12571 
L 266.46925 202.540087 
L 267.683287 203.386186 
L 268.862537 202.869661 
L 271.260463 202.035125 
L 272.454208 201.283465 
L 273.627661 199.492973 
L 274.781401 199.861093 
L 277.162514 201.31623 
L 278.330169 202.815695 
L 280.667798 202.089091 
L 281.851687 201.861665 
L 283.0263 201.514745 
L 284.185838 202.370481 
L 285.353493 206.417881 
L 286.504915 211.881871 
L 287.666772 220.429595 
L 288.856459 231.746896 
L 290.047885 240.599138 
L 291.219019 242.401195 
L 292.376818 241.474147 
L 293.580998 241.030861 
L 295.867608 240.651176 
L 297.038742 239.413828 
L 298.17451 238.972469 
L 300.468077 241.433673 
L 301.620658 239.317461 
L 302.777298 239.542959 
L 303.864365 237.299543 
L 304.95665 229.414823 
L 308.603399 164.972505 
L 309.63017 168.464833 
L 310.674914 167.593679 
L 311.825756 167.474184 
L 312.959205 168.451342 
L 314.118164 166.078795 
L 315.23364 163.340054 
L 316.402455 158.448482 
L 317.502857 153.310211 
L 318.613115 154.921462 
L 319.735548 158.276949 
L 320.855662 153.687969 
L 321.979835 151.155453 
L 323.127198 145.668335 
L 324.223542 147.011686 
L 325.336119 150.106983 
L 326.427244 156.195429 
L 327.533444 145.731937 
L 328.590943 140.585957 
L 329.742945 131.820445 
L 333.026758 95.488284 
L 334.090634 91.442811 
L 335.167845 85.458441 
L 336.229983 75.690716 
L 337.308933 70.750961 
L 338.473689 62.733254 
L 339.547422 52.404675 
L 340.60782 46.584128 
L 341.715759 43.190094 
L 342.763402 38.658933 
L 342.763402 38.658933 
" style="fill:none;stroke:#000000;stroke-linecap:square;stroke-width:1.5;"/>
   </g>
   <g id="line2d_15">
    <path clip-path="url(#p28abbde9a3)" d="M 72.725447 235.356791 
L 73.154476 234.603204 
L 73.577708 234.277485 
L 77.496948 227.009511 
L 78.789833 223.494055 
L 80.088516 217.962608 
L 82.233662 206.269477 
L 83.543941 200.988583 
L 84.390404 198.263334 
L 85.70648 194.994577 
L 86.98777 192.477479 
L 87.857424 191.309515 
L 88.286453 190.968377 
L 88.709685 190.299593 
L 90.878022 188.776999 
L 91.741878 188.312512 
L 92.170907 188.239273 
L 92.599936 188.023412 
L 93.452197 188.019557 
L 94.316053 187.743949 
L 94.739285 188.171817 
L 95.174112 187.857661 
L 96.049563 188.169889 
L 96.907622 188.029194 
L 97.336651 188.432007 
L 97.771478 188.102433 
L 98.194709 188.108215 
L 98.623738 188.412733 
L 99.052768 188.270111 
L 99.475999 188.283602 
L 99.905028 188.563065 
L 100.334058 188.115924 
L 100.757289 188.146761 
L 101.186318 188.645941 
L 101.632741 188.36455 
L 108.887973 184.355697 
L 109.719362 184.330641 
L 111.38272 183.846881 
L 112.214689 184.746945 
L 113.046658 185.099647 
L 113.879206 184.571558 
L 114.711755 184.550357 
L 115.544883 184.324859 
L 116.378012 183.382393 
L 117.21114 183.698476 
L 118.044268 184.931969 
L 119.711685 183.550071 
L 121.378521 182.942961 
L 122.212229 182.993072 
L 123.879646 183.787133 
L 124.713354 183.509597 
L 125.547062 184.305586 
L 126.38077 185.914909 
L 127.214478 186.884358 
L 128.047607 186.787991 
L 128.880735 186.481545 
L 130.546992 190.8219 
L 131.37954 192.265473 
L 132.212669 186.549002 
L 134.709155 185.454277 
L 135.540544 184.876077 
L 136.371933 186.780282 
L 138.033552 185.552571 
L 138.864361 190.515454 
L 139.694011 188.283602 
L 140.523661 190.914412 
L 141.352731 190.230209 
L 142.181801 188.584266 
L 143.010291 188.536083 
L 143.838201 188.088941 
L 144.665532 187.886571 
L 145.492283 187.235133 
L 146.319034 187.343063 
L 147.970217 187.079019 
L 151.265045 188.056177 
L 152.087738 189.035262 
L 152.909271 188.873366 
L 153.730224 189.181739 
L 154.550018 190.523163 
L 155.369811 190.455707 
L 156.188446 192.664431 
L 157.0065 192.656721 
L 157.823395 191.623671 
L 159.455445 192.593119 
L 160.270021 197.168609 
L 161.084017 215.996728 
L 161.896853 209.910209 
L 162.70853 195.923551 
L 163.519628 211.866453 
L 164.330145 231.52718 
L 165.139503 210.127998 
L 166.75474 212.190245 
L 167.561199 211.076246 
L 168.366498 201.526309 
L 169.170638 196.571135 
L 169.973619 192.776216 
L 170.775439 191.365408 
L 171.576681 190.41716 
L 172.376182 191.413591 
L 173.175104 191.683418 
L 174.76831 190.162752 
L 175.563754 190.160825 
L 176.357458 189.738739 
L 177.150002 189.711756 
L 177.941387 189.559497 
L 179.520099 189.503604 
L 180.307425 189.919908 
L 181.093592 190.168534 
L 181.8786 190.297665 
L 182.661868 190.997287 
L 183.443977 190.912485 
L 184.224346 191.367335 
L 185.003556 192.201871 
L 185.781027 192.271255 
L 186.557338 193.148191 
L 187.331909 192.768507 
L 188.105322 192.963167 
L 188.876994 192.992077 
L 189.646928 193.167465 
L 190.415702 193.689772 
L 191.182737 193.595333 
L 191.948032 194.705477 
L 192.712168 194.219789 
L 193.473985 194.950248 
L 194.234642 194.963739 
L 195.750159 196.245416 
L 196.505598 198.779859 
L 198.011259 202.738602 
L 198.76148 203.289819 
M 211.117522 242.362648 
L 212.30315 240.816927 
L 213.523564 239.664381 
L 214.737021 239.273133 
L 215.993381 239.409973 
L 217.187706 239.720274 
L 219.579254 239.959263 
L 220.786913 239.587288 
L 221.993993 239.546814 
L 223.204551 239.04378 
L 224.454533 237.949055 
L 225.625667 237.59828 
L 226.833326 237.428675 
L 228.013737 236.524755 
L 229.216758 235.418466 
L 231.657006 232.064906 
L 234.042757 229.131505 
L 235.255634 227.281265 
L 236.459235 225.799145 
L 237.671532 224.84897 
L 238.901803 223.282048 
L 241.326398 220.793861 
L 242.506228 219.997872 
L 244.944737 216.332084 
L 246.153556 214.497263 
L 247.359476 213.456503 
L 248.560178 213.180894 
L 249.747546 212.726043 
L 250.930855 211.384619 
L 252.118222 210.760163 
L 253.318344 209.954538 
L 254.50977 209.55558 
L 255.729025 209.264553 
L 256.89784 208.736463 
L 258.088686 207.713049 
L 259.287069 206.458355 
L 260.472117 206.679999 
L 261.665282 205.641166 
L 262.848591 205.645021 
L 264.055091 205.515889 
L 265.282462 205.608401 
L 266.46925 206.302241 
L 267.683287 207.495261 
L 268.862537 207.3006 
L 271.260463 207.206161 
L 272.454208 206.861168 
L 273.627661 205.444578 
L 274.781401 206.286823 
L 277.162514 208.911851 
L 278.330169 211.089737 
L 280.667798 211.654446 
L 283.0263 212.629677 
L 284.185838 214.298747 
L 285.353493 219.562295 
L 286.504915 226.485276 
L 287.666772 236.971897 
L 288.856459 250.756185 
L 290.047885 262.073486 
L 291.219019 265.746983 
L 292.376818 266.323256 
L 293.580998 267.658898 
L 294.730681 269.380007 
L 295.867608 271.30734 
L 297.038742 272.75284 
L 298.17451 274.581879 
L 299.333469 278.870196 
L 300.468077 283.917882 
L 301.620658 284.260947 
L 302.777298 288.258237 
L 303.462035 289 
M 303.932655 289 
L 304.95665 282.464673 
L 308.603399 207.580063 
L 309.63017 215.686427 
L 310.674914 218.134141 
L 311.825756 221.560939 
L 312.959205 227.487489 
L 314.118164 229.114159 
L 315.23364 229.299183 
L 317.502857 224.509759 
L 318.613115 232.677798 
L 319.735548 245.045496 
L 320.855662 244.372857 
L 321.979835 247.730271 
L 323.127198 245.916651 
L 324.223542 259.409911 
L 325.336119 279.045583 
L 325.707757 289 
M 330.403128 289 
L 330.823055 283.046727 
L 331.94085 265.55425 
L 333.026758 239.068835 
L 334.090634 249.432107 
L 335.167845 252.812649 
L 336.229983 229.037065 
L 337.308933 247.537538 
M 341.715759 199.724253 
L 342.763402 184.251621 
L 342.763402 184.251621 
" style="fill:none;stroke:#0000ff;stroke-linecap:square;stroke-width:1.5;"/>
   </g>
   <g id="line2d_16">
    <path clip-path="url(#p28abbde9a3)" d="M 72.725447 235.356791 
L 73.154476 234.603204 
L 73.577708 234.277485 
L 77.496948 227.009511 
L 78.789833 223.494055 
L 80.088516 217.962608 
L 82.233662 206.269477 
L 83.543941 200.988583 
L 84.390404 198.263334 
L 85.70648 194.994577 
L 86.98777 192.477479 
L 87.857424 191.309515 
L 88.286453 190.968377 
L 88.709685 190.299593 
L 90.878022 188.776999 
L 91.741878 188.312512 
L 92.170907 188.239273 
L 92.599936 188.023412 
L 93.452197 188.019557 
L 94.316053 187.743949 
L 94.739285 188.171817 
L 95.174112 187.857661 
L 96.049563 188.169889 
L 96.907622 188.029194 
L 97.336651 188.432007 
L 97.771478 188.102433 
L 98.194709 188.108215 
L 98.623738 188.412733 
L 99.052768 188.270111 
L 99.475999 188.283602 
L 99.905028 188.563065 
L 100.334058 188.115924 
L 100.757289 188.146761 
L 101.186318 188.645941 
L 101.632741 188.36455 
L 108.057164 184.889568 
L 108.887973 184.199583 
L 109.719362 184.401953 
L 110.550751 184.382679 
L 111.38272 184.134053 
L 112.214689 184.854876 
L 113.046658 184.935824 
L 113.879206 184.556139 
L 114.711755 184.955097 
L 116.378012 183.559708 
L 117.21114 183.532725 
L 118.044268 184.189946 
L 118.877977 183.8835 
L 119.711685 183.411303 
L 120.544813 183.199297 
L 122.212229 182.324287 
L 123.045938 182.676989 
L 123.879646 182.78492 
L 124.713354 183.301445 
L 125.547062 184.147545 
L 126.38077 185.263471 
L 127.214478 185.273107 
L 128.047607 184.787419 
L 128.880735 184.540721 
L 130.546992 184.245839 
L 131.37954 183.804479 
L 132.212669 184.301731 
L 133.044638 184.602395 
L 133.877186 184.427008 
L 137.202743 185.105429 
L 138.864361 184.610105 
L 139.694011 185.336709 
L 141.352731 185.541007 
L 142.181801 185.984293 
L 143.010291 185.957311 
L 146.319034 187.601326 
L 147.144625 187.354627 
L 148.794649 187.543506 
L 150.442353 188.040758 
L 151.265045 188.129415 
L 152.087738 188.960096 
L 152.909271 188.775072 
L 153.730224 188.7982 
L 154.550018 189.846669 
L 155.369811 189.831251 
L 156.188446 190.315011 
L 157.0065 189.316653 
L 157.823395 189.773431 
L 159.455445 191.427083 
L 160.270021 190.399814 
L 161.084017 190.854665 
L 161.896853 189.89678 
L 162.70853 189.698265 
L 163.519628 188.45128 
L 164.330145 191.427083 
L 165.139503 188.214218 
L 166.75474 190.129987 
L 167.561199 189.952673 
L 168.366498 189.181739 
L 169.170638 188.909985 
L 169.973619 188.938895 
L 170.775439 189.684773 
L 171.576681 189.357127 
L 172.376182 189.788849 
L 174.76831 190.270683 
L 175.563754 190.357413 
L 176.357458 189.952673 
L 179.520099 189.829323 
L 181.093592 190.548219 
L 181.8786 190.35934 
L 182.661868 190.61953 
L 183.443977 190.523163 
L 184.224346 190.939467 
L 185.003556 191.831823 
L 185.781027 191.797131 
L 186.557338 192.886074 
L 187.331909 192.596974 
L 188.105322 192.654794 
L 190.415702 193.65508 
L 191.182737 193.416091 
L 191.948032 193.707118 
L 192.712168 193.529803 
L 195.750159 194.967594 
L 196.505598 196.476696 
L 198.011259 198.806842 
L 198.76148 199.236637 
M 211.117522 233.876599 
L 213.523564 236.580648 
L 214.737021 237.760176 
L 215.993381 238.563874 
L 217.187706 238.683369 
L 218.401742 239.028361 
L 220.786913 238.612057 
L 221.993993 239.057271 
L 223.204551 238.276701 
L 224.454533 236.90444 
L 225.625667 236.902513 
L 226.833326 236.705925 
L 228.013737 235.751895 
L 229.216758 234.412398 
L 232.830459 229.540099 
L 234.042757 228.507049 
L 235.255634 226.546951 
L 236.459235 224.960755 
L 237.671532 224.004798 
L 238.901803 222.470641 
L 240.097867 221.277621 
L 242.506228 219.479419 
L 246.153556 214.445225 
L 247.359476 213.581779 
L 248.560178 213.11151 
L 249.747546 212.955396 
L 250.930855 210.837257 
L 252.118222 210.767873 
L 254.50977 209.376338 
L 255.729025 208.973525 
L 256.89784 209.010145 
L 258.088686 208.362561 
L 259.287069 206.841895 
L 260.472117 208.391471 
L 261.665282 207.543444 
L 262.848591 207.236998 
L 264.055091 206.689635 
L 265.282462 206.257913 
L 266.46925 206.329224 
L 267.683287 206.651089 
L 268.862537 206.504611 
L 270.071936 206.633743 
L 271.260463 206.903569 
L 272.454208 207.524171 
L 273.627661 206.670362 
L 275.982103 207.433586 
L 277.162514 208.576495 
L 278.330169 210.476845 
L 279.526812 211.141775 
L 280.667798 210.883513 
L 281.851687 211.340291 
L 283.0263 211.957037 
L 284.185838 212.097733 
L 285.353493 215.815559 
L 286.504915 220.063401 
L 287.666772 229.252927 
L 288.856459 261.655255 
L 289.044878 289 
M 307.042344 289 
L 307.551698 218.858818 
L 308.603399 195.690344 
L 309.63017 210.976025 
L 311.825756 217.291896 
L 312.959205 223.594276 
L 314.118164 225.296111 
L 315.23364 225.190108 
L 316.402455 222.881163 
L 317.502857 221.580213 
L 318.613115 229.956403 
L 319.735548 244.735195 
L 320.855662 243.904515 
L 321.979835 248.221741 
L 323.127198 245.885813 
L 324.223542 263.355163 
L 325.248452 289 
M 330.967096 289 
L 331.94085 269.050433 
L 333.026758 238.319103 
L 334.090634 249.709643 
L 335.167845 253.198116 
L 336.229983 228.266132 
L 337.308933 247.595358 
M 341.715759 198.018563 
L 342.763402 181.588046 
L 342.763402 181.588046 
" style="fill:none;stroke:#ff0000;stroke-linecap:square;stroke-width:1.5;"/>
   </g>
   <g id="patch_3">
    <path d="M 47.72 246.04 
L 47.72 14.76 
" style="fill:none;stroke:#000000;stroke-linecap:square;stroke-linejoin:miter;stroke-width:0.8;"/>
   </g>
   <g id="patch_4">
    <path d="M 349.2 246.04 
L 349.2 14.76 
" style="fill:none;stroke:#000000;stroke-linecap:square;stroke-linejoin:miter;stroke-width:0.8;"/>
   </g>
   <g id="patch_5">
    <path d="M 47.72 246.04 
L 349.2 246.04 
" style="fill:none;stroke:#000000;stroke-linecap:square;stroke-linejoin:miter;stroke-width:0.8;"/>
   </g>
   <g id="patch_6">
    <path d="M 47.72 14.76 
L 349.2 14.76 
" style="fill:none;stroke:#000000;stroke-linecap:square;stroke-linejoin:miter;stroke-width:0.8;"/>
   </g>
   <g id="legend_1">
    <g id="patch_7">
     <path d="M 54.72 66.794375 
L 259.684063 66.794375 
Q 261.684063 66.794375 261.684063 64.794375 
L 261.684063 21.76 
Q 261.684063 19.76 259.684063 19.76 
L 54.72 19.76 
Q 52.72 19.76 52.72 21.76 
L 52.72 64.794375 
Q 52.72 66.794375 54.72 66.794375 
z
" style="fill:#ffffff;opacity:0.8;stroke:#cccccc;stroke-linejoin:miter;"/>
    </g>
    <g id="line2d_17">
     <path d="M 56.72 27.858438 
L 76.72 27.858438 
" style="fill:none;stroke:#000000;stroke-linecap:square;stroke-width:1.5;"/>
    </g>
    <g id="line2d_18"/>
    <g id="text_16">
     <!-- Initial OMEGA spectrum -->
     <defs>
      <path d="M 9.421875 54.6875 
L 18.40625 54.6875 
L 18.40625 0 
L 9.421875 0 
z
M 9.421875 75.984375 
L 18.40625 75.984375 
L 18.40625 64.59375 
L 9.421875 64.59375 
z
" id="DejaVuSans-105"/>
      <path d="M 39.40625 66.21875 
Q 28.65625 66.21875 22.328125 58.203125 
Q 16.015625 50.203125 16.015625 36.375 
Q 16.015625 22.609375 22.328125 14.59375 
Q 28.65625 6.59375 39.40625 6.59375 
Q 50.140625 6.59375 56.421875 14.59375 
Q 62.703125 22.609375 62.703125 36.375 
Q 62.703125 50.203125 56.421875 58.203125 
Q 50.140625 66.21875 39.40625 66.21875 
z
M 39.40625 74.21875 
Q 54.734375 74.21875 63.90625 63.9375 
Q 73.09375 53.65625 73.09375 36.375 
Q 73.09375 19.140625 63.90625 8.859375 
Q 54.734375 -1.421875 39.40625 -1.421875 
Q 24.03125 -1.421875 14.8125 8.828125 
Q 5.609375 19.09375 5.609375 36.375 
Q 5.609375 53.65625 14.8125 63.9375 
Q 24.03125 74.21875 39.40625 74.21875 
z
" id="DejaVuSans-79"/>
      <path d="M 9.8125 72.90625 
L 24.515625 72.90625 
L 43.109375 23.296875 
L 61.8125 72.90625 
L 76.515625 72.90625 
L 76.515625 0 
L 66.890625 0 
L 66.890625 64.015625 
L 48.09375 14.015625 
L 38.1875 14.015625 
L 19.390625 64.015625 
L 19.390625 0 
L 9.8125 0 
z
" id="DejaVuSans-77"/>
      <path d="M 9.8125 72.90625 
L 55.90625 72.90625 
L 55.90625 64.59375 
L 19.671875 64.59375 
L 19.671875 43.015625 
L 54.390625 43.015625 
L 54.390625 34.71875 
L 19.671875 34.71875 
L 19.671875 8.296875 
L 56.78125 8.296875 
L 56.78125 0 
L 9.8125 0 
z
" id="DejaVuSans-69"/>
      <path d="M 59.515625 10.40625 
L 59.515625 29.984375 
L 43.40625 29.984375 
L 43.40625 38.09375 
L 69.28125 38.09375 
L 69.28125 6.78125 
Q 63.578125 2.734375 56.6875 0.65625 
Q 49.8125 -1.421875 42 -1.421875 
Q 24.90625 -1.421875 15.25 8.5625 
Q 5.609375 18.5625 5.609375 36.375 
Q 5.609375 54.25 15.25 64.234375 
Q 24.90625 74.21875 42 74.21875 
Q 49.125 74.21875 55.546875 72.453125 
Q 61.96875 70.703125 67.390625 67.28125 
L 67.390625 56.78125 
Q 61.921875 61.421875 55.765625 63.765625 
Q 49.609375 66.109375 42.828125 66.109375 
Q 29.4375 66.109375 22.71875 58.640625 
Q 16.015625 51.171875 16.015625 36.375 
Q 16.015625 21.625 22.71875 14.15625 
Q 29.4375 6.6875 42.828125 6.6875 
Q 48.046875 6.6875 52.140625 7.59375 
Q 56.25 8.5 59.515625 10.40625 
z
" id="DejaVuSans-71"/>
      <path d="M 34.1875 63.1875 
L 20.796875 26.90625 
L 47.609375 26.90625 
z
M 28.609375 72.90625 
L 39.796875 72.90625 
L 67.578125 0 
L 57.328125 0 
L 50.6875 18.703125 
L 17.828125 18.703125 
L 11.1875 0 
L 0.78125 0 
z
" id="DejaVuSans-65"/>
      <path d="M 44.28125 53.078125 
L 44.28125 44.578125 
Q 40.484375 46.53125 36.375 47.5 
Q 32.28125 48.484375 27.875 48.484375 
Q 21.1875 48.484375 17.84375 46.4375 
Q 14.5 44.390625 14.5 40.28125 
Q 14.5 37.15625 16.890625 35.375 
Q 19.28125 33.59375 26.515625 31.984375 
L 29.59375 31.296875 
Q 39.15625 29.25 43.1875 25.515625 
Q 47.21875 21.78125 47.21875 15.09375 
Q 47.21875 7.46875 41.1875 3.015625 
Q 35.15625 -1.421875 24.609375 -1.421875 
Q 20.21875 -1.421875 15.453125 -0.5625 
Q 10.6875 0.296875 5.421875 2 
L 5.421875 11.28125 
Q 10.40625 8.6875 15.234375 7.390625 
Q 20.0625 6.109375 24.8125 6.109375 
Q 31.15625 6.109375 34.5625 8.28125 
Q 37.984375 10.453125 37.984375 14.40625 
Q 37.984375 18.0625 35.515625 20.015625 
Q 33.0625 21.96875 24.703125 23.78125 
L 21.578125 24.515625 
Q 13.234375 26.265625 9.515625 29.90625 
Q 5.8125 33.546875 5.8125 39.890625 
Q 5.8125 47.609375 11.28125 51.796875 
Q 16.75 56 26.8125 56 
Q 31.78125 56 36.171875 55.265625 
Q 40.578125 54.546875 44.28125 53.078125 
z
" id="DejaVuSans-115"/>
      <path d="M 18.109375 8.203125 
L 18.109375 -20.796875 
L 9.078125 -20.796875 
L 9.078125 54.6875 
L 18.109375 54.6875 
L 18.109375 46.390625 
Q 20.953125 51.265625 25.265625 53.625 
Q 29.59375 56 35.59375 56 
Q 45.5625 56 51.78125 48.09375 
Q 58.015625 40.1875 58.015625 27.296875 
Q 58.015625 14.40625 51.78125 6.484375 
Q 45.5625 -1.421875 35.59375 -1.421875 
Q 29.59375 -1.421875 25.265625 0.953125 
Q 20.953125 3.328125 18.109375 8.203125 
z
M 48.6875 27.296875 
Q 48.6875 37.203125 44.609375 42.84375 
Q 40.53125 48.484375 33.40625 48.484375 
Q 26.265625 48.484375 22.1875 42.84375 
Q 18.109375 37.203125 18.109375 27.296875 
Q 18.109375 17.390625 22.1875 11.75 
Q 26.265625 6.109375 33.40625 6.109375 
Q 40.53125 6.109375 44.609375 11.75 
Q 48.6875 17.390625 48.6875 27.296875 
z
" id="DejaVuSans-112"/>
      <path d="M 41.109375 46.296875 
Q 39.59375 47.171875 37.8125 47.578125 
Q 36.03125 48 33.890625 48 
Q 26.265625 48 22.1875 43.046875 
Q 18.109375 38.09375 18.109375 28.8125 
L 18.109375 0 
L 9.078125 0 
L 9.078125 54.6875 
L 18.109375 54.6875 
L 18.109375 46.1875 
Q 20.953125 51.171875 25.484375 53.578125 
Q 30.03125 56 36.53125 56 
Q 37.453125 56 38.578125 55.875 
Q 39.703125 55.765625 41.0625 55.515625 
z
" id="DejaVuSans-114"/>
      <path d="M 8.5 21.578125 
L 8.5 54.6875 
L 17.484375 54.6875 
L 17.484375 21.921875 
Q 17.484375 14.15625 20.5 10.265625 
Q 23.53125 6.390625 29.59375 6.390625 
Q 36.859375 6.390625 41.078125 11.03125 
Q 45.3125 15.671875 45.3125 23.6875 
L 45.3125 54.6875 
L 54.296875 54.6875 
L 54.296875 0 
L 45.3125 0 
L 45.3125 8.40625 
Q 42.046875 3.421875 37.71875 1 
Q 33.40625 -1.421875 27.6875 -1.421875 
Q 18.265625 -1.421875 13.375 4.4375 
Q 8.5 10.296875 8.5 21.578125 
z
M 31.109375 56 
z
" id="DejaVuSans-117"/>
     </defs>
     <g transform="translate(84.72 31.358438)scale(0.1 -0.1)">
      <use xlink:href="#DejaVuSans-73"/>
      <use x="29.492188" xlink:href="#DejaVuSans-110"/>
      <use x="92.871094" xlink:href="#DejaVuSans-105"/>
      <use x="120.654297" xlink:href="#DejaVuSans-116"/>
      <use x="159.863281" xlink:href="#DejaVuSans-105"/>
      <use x="187.646484" xlink:href="#DejaVuSans-97"/>
      <use x="248.925781" xlink:href="#DejaVuSans-108"/>
      <use x="276.708984" xlink:href="#DejaVuSans-32"/>
      <use x="308.496094" xlink:href="#DejaVuSans-79"/>
      <use x="387.207031" xlink:href="#DejaVuSans-77"/>
      <use x="473.486328" xlink:href="#DejaVuSans-69"/>
      <use x="536.669922" xlink:href="#DejaVuSans-71"/>
      <use x="614.160156" xlink:href="#DejaVuSans-65"/>
      <use x="682.568359" xlink:href="#DejaVuSans-32"/>
      <use x="714.355469" xlink:href="#DejaVuSans-115"/>
      <use x="766.455078" xlink:href="#DejaVuSans-112"/>
      <use x="829.931641" xlink:href="#DejaVuSans-101"/>
      <use x="891.455078" xlink:href="#DejaVuSans-99"/>
      <use x="946.435547" xlink:href="#DejaVuSans-116"/>
      <use x="985.644531" xlink:href="#DejaVuSans-114"/>
      <use x="1026.757812" xlink:href="#DejaVuSans-117"/>
      <use x="1090.136719" xlink:href="#DejaVuSans-109"/>
     </g>
    </g>
    <g id="line2d_19">
     <path d="M 56.72 42.536563 
L 76.72 42.536563 
" style="fill:none;stroke:#0000ff;stroke-linecap:square;stroke-width:1.5;"/>
    </g>
    <g id="line2d_20"/>
    <g id="text_17">
     <!-- Thermal correction -->
     <defs>
      <path d="M -0.296875 72.90625 
L 61.375 72.90625 
L 61.375 64.59375 
L 35.5 64.59375 
L 35.5 0 
L 25.59375 0 
L 25.59375 64.59375 
L -0.296875 64.59375 
z
" id="DejaVuSans-84"/>
      <path d="M 54.890625 33.015625 
L 54.890625 0 
L 45.90625 0 
L 45.90625 32.71875 
Q 45.90625 40.484375 42.875 44.328125 
Q 39.84375 48.1875 33.796875 48.1875 
Q 26.515625 48.1875 22.3125 43.546875 
Q 18.109375 38.921875 18.109375 30.90625 
L 18.109375 0 
L 9.078125 0 
L 9.078125 75.984375 
L 18.109375 75.984375 
L 18.109375 46.1875 
Q 21.34375 51.125 25.703125 53.5625 
Q 30.078125 56 35.796875 56 
Q 45.21875 56 50.046875 50.171875 
Q 54.890625 44.34375 54.890625 33.015625 
z
" id="DejaVuSans-104"/>
      <path d="M 30.609375 48.390625 
Q 23.390625 48.390625 19.1875 42.75 
Q 14.984375 37.109375 14.984375 27.296875 
Q 14.984375 17.484375 19.15625 11.84375 
Q 23.34375 6.203125 30.609375 6.203125 
Q 37.796875 6.203125 41.984375 11.859375 
Q 46.1875 17.53125 46.1875 27.296875 
Q 46.1875 37.015625 41.984375 42.703125 
Q 37.796875 48.390625 30.609375 48.390625 
z
M 30.609375 56 
Q 42.328125 56 49.015625 48.375 
Q 55.71875 40.765625 55.71875 27.296875 
Q 55.71875 13.875 49.015625 6.21875 
Q 42.328125 -1.421875 30.609375 -1.421875 
Q 18.84375 -1.421875 12.171875 6.21875 
Q 5.515625 13.875 5.515625 27.296875 
Q 5.515625 40.765625 12.171875 48.375 
Q 18.84375 56 30.609375 56 
z
" id="DejaVuSans-111"/>
     </defs>
     <g transform="translate(84.72 46.036563)scale(0.1 -0.1)">
      <use xlink:href="#DejaVuSans-84"/>
      <use x="61.083984" xlink:href="#DejaVuSans-104"/>
      <use x="124.462891" xlink:href="#DejaVuSans-101"/>
      <use x="185.986328" xlink:href="#DejaVuSans-114"/>
      <use x="227.083984" xlink:href="#DejaVuSans-109"/>
      <use x="324.496094" xlink:href="#DejaVuSans-97"/>
      <use x="385.775391" xlink:href="#DejaVuSans-108"/>
      <use x="413.558594" xlink:href="#DejaVuSans-32"/>
      <use x="445.345703" xlink:href="#DejaVuSans-99"/>
      <use x="500.326172" xlink:href="#DejaVuSans-111"/>
      <use x="561.507812" xlink:href="#DejaVuSans-114"/>
      <use x="602.605469" xlink:href="#DejaVuSans-114"/>
      <use x="643.6875" xlink:href="#DejaVuSans-101"/>
      <use x="705.210938" xlink:href="#DejaVuSans-99"/>
      <use x="760.191406" xlink:href="#DejaVuSans-116"/>
      <use x="799.400391" xlink:href="#DejaVuSans-105"/>
      <use x="827.183594" xlink:href="#DejaVuSans-111"/>
      <use x="888.365234" xlink:href="#DejaVuSans-110"/>
     </g>
    </g>
    <g id="line2d_21">
     <path d="M 56.72 57.214688 
L 76.72 57.214688 
" style="fill:none;stroke:#ff0000;stroke-linecap:square;stroke-width:1.5;"/>
    </g>
    <g id="line2d_22"/>
    <g id="text_18">
     <!-- Thermal + Atmospheric correction -->
     <defs>
      <path d="M 46 62.703125 
L 46 35.5 
L 73.1875 35.5 
L 73.1875 27.203125 
L 46 27.203125 
L 46 0 
L 37.796875 0 
L 37.796875 27.203125 
L 10.59375 27.203125 
L 10.59375 35.5 
L 37.796875 35.5 
L 37.796875 62.703125 
z
" id="DejaVuSans-43"/>
     </defs>
     <g transform="translate(84.72 60.714688)scale(0.1 -0.1)">
      <use xlink:href="#DejaVuSans-84"/>
      <use x="61.083984" xlink:href="#DejaVuSans-104"/>
      <use x="124.462891" xlink:href="#DejaVuSans-101"/>
      <use x="185.986328" xlink:href="#DejaVuSans-114"/>
      <use x="227.083984" xlink:href="#DejaVuSans-109"/>
      <use x="324.496094" xlink:href="#DejaVuSans-97"/>
      <use x="385.775391" xlink:href="#DejaVuSans-108"/>
      <use x="413.558594" xlink:href="#DejaVuSans-32"/>
      <use x="445.345703" xlink:href="#DejaVuSans-43"/>
      <use x="529.134766" xlink:href="#DejaVuSans-32"/>
      <use x="560.921875" xlink:href="#DejaVuSans-65"/>
      <use x="629.314453" xlink:href="#DejaVuSans-116"/>
      <use x="668.523438" xlink:href="#DejaVuSans-109"/>
      <use x="765.935547" xlink:href="#DejaVuSans-111"/>
      <use x="827.117188" xlink:href="#DejaVuSans-115"/>
      <use x="879.216797" xlink:href="#DejaVuSans-112"/>
      <use x="942.693359" xlink:href="#DejaVuSans-104"/>
      <use x="1006.072266" xlink:href="#DejaVuSans-101"/>
      <use x="1067.595703" xlink:href="#DejaVuSans-114"/>
      <use x="1108.708984" xlink:href="#DejaVuSans-105"/>
      <use x="1136.492188" xlink:href="#DejaVuSans-99"/>
      <use x="1191.472656" xlink:href="#DejaVuSans-32"/>
      <use x="1223.259766" xlink:href="#DejaVuSans-99"/>
      <use x="1278.240234" xlink:href="#DejaVuSans-111"/>
      <use x="1339.421875" xlink:href="#DejaVuSans-114"/>
      <use x="1380.519531" xlink:href="#DejaVuSans-114"/>
      <use x="1421.601562" xlink:href="#DejaVuSans-101"/>
      <use x="1483.125" xlink:href="#DejaVuSans-99"/>
      <use x="1538.105469" xlink:href="#DejaVuSans-116"/>
      <use x="1577.314453" xlink:href="#DejaVuSans-105"/>
      <use x="1605.097656" xlink:href="#DejaVuSans-111"/>
      <use x="1666.279297" xlink:href="#DejaVuSans-110"/>
     </g>
    </g>
   </g>
  </g>
 </g>
 <defs>
  <clipPath id="p28abbde9a3">
   <rect height="231.28" width="301.48" x="47.72" y="14.76"/>
  </clipPath>
 </defs>
</svg>
